<?xml version="1.0" standalone="no"?>
<!DOCTYPE svg PUBLIC "-//W3C//DTD SVG 20010904//EN"
 "http://www.w3.org/TR/2001/REC-SVG-20010904/DTD/svg10.dtd">
<svg version="1.0" xmlns="http://www.w3.org/2000/svg"
 width="200.000000pt" height="200.000000pt" viewBox="0 0 200.000000 200.000000"
 preserveAspectRatio="xMidYMid meet">
<metadata>
Created by potrace 1.14, written by Peter Selinger 2001-2017
</metadata>
<g transform="translate(0.000000,200.000000) scale(0.100000,-0.100000)"
fill="#000000" stroke="none">
<path d="M1120 1459 c-30 -16 -67 -43 -82 -60 l-27 -32 -38 19 c-69 33 -166
18 -227 -35 -30 -26 -55 -86 -59 -137 -3 -47 -3 -47 -40 -50 -118 -10 -192
-135 -146 -247 32 -77 84 -109 183 -111 54 -2 78 -7 90 -19 22 -22 42 -22 55
0 8 16 33 18 263 18 227 1 256 3 284 19 44 26 67 70 68 130 1 35 8 61 22 81
45 64 57 99 58 170 2 162 -110 277 -274 282 -67 2 -82 -2 -130 -28z"/>
<path d="M1092 754 c-29 -20 -26 -58 5 -62 29 -4 48 30 33 58 -13 24 -10 24
-38 4z"/>
<path d="M891 688 c-20 -48 -18 -64 9 -71 24 -6 33 2 48 46 11 30 11 41 2 52
-21 26 -40 16 -59 -27z"/>
<path d="M729 689 c-25 -48 -29 -79 -10 -89 24 -12 45 5 60 50 10 30 9 37 -6
47 -23 18 -31 16 -44 -8z"/>
<path d="M1012 567 c-17 -47 -15 -64 7 -70 26 -6 36 2 50 43 10 30 9 36 -6 47
-27 20 -38 16 -51 -20z"/>
<path d="M845 569 c-12 -18 4 -61 22 -57 22 4 38 32 30 52 -7 18 -42 22 -52 5z"/>
</g>
</svg>
