<svg width="143" height="36" viewBox="0 0 143 36" fill="none" xmlns="http://www.w3.org/2000/svg">
<path d="M128.761 35.0964H142.098V13.2247C143.285 9.49469 143.512 0 141.477 0H110.958C108.517 0.813831 112.088 12.5126 110.562 15.2593C108.527 18.9216 102.254 20.5153 99.3716 20.8544C91.6403 20.8544 87.6728 22.5499 86.6555 23.3976C82.5864 28.4841 84.621 32.5532 86.6555 35.0964C86.6555 35.0964 112.315 35.4355 125.709 35.0964C125.879 34.7574 126.218 33.5705 127.235 33.5705C128.252 33.5705 128.591 34.7574 128.761 35.0964Z" fill="#111111"/>
<path d="M45.3432 35.0964H58.68V13.2247C59.8668 9.49469 61.7318 0 59.6973 0H27.144C24.7025 0.813831 28.67 12.5126 27.144 15.2593C25.1095 18.9216 18.8362 20.5153 15.9539 20.8544C8.22247 20.8544 4.25505 22.5499 3.23776 23.3976C-0.83139 28.4841 1.20319 32.5532 3.23776 35.0964C3.23776 35.0964 28.8971 35.4355 42.2914 35.0964C42.4609 34.7574 42.8 33.5705 43.8173 33.5705C44.8346 33.5705 45.1737 34.7574 45.3432 35.0964Z" fill="#111111"/>
</svg>
