<svg width="245" height="40" viewBox="0 0 245 40" fill="none" xmlns="http://www.w3.org/2000/svg">
<path d="M244.852 34.2209C242.961 26.1832 224.048 5.37948 222.63 3.96102C218.375 -0.294277 206.554 6.32508 206.554 6.32508C206.554 21.8128 201.501 34.8525 206.554 34.2209C210.337 33.7482 212.543 27.9168 213.174 25.7103C230.195 39.7056 246.743 43.6772 244.852 34.2209Z" fill="#111111"/>
<path d="M0.330857 32.374C2.2221 24.1619 21.1345 2.90701 22.553 1.45779C26.8083 -2.8898 38.6286 3.87311 38.6286 3.87311C38.6286 19.6967 43.6816 33.0193 38.6286 32.374C34.8461 31.8909 32.6396 25.9331 32.0092 23.6788C14.988 37.9775 -1.56037 42.0353 0.330857 32.374Z" fill="#111111"/>
</svg>
