<svg width="270" height="44" viewBox="0 0 270 44" fill="none" xmlns="http://www.w3.org/2000/svg">
<path d="M269.837 37.857C267.751 28.9924 246.893 6.04878 245.329 4.48442C240.636 -0.208605 227.6 7.09165 227.6 7.09165C227.6 24.1725 222.027 38.5536 227.6 37.857C231.771 37.3356 234.205 30.9044 234.9 28.471C253.672 43.9058 271.923 48.2859 269.837 37.857Z" fill="#E4AD59"/>
<path d="M0.163219 35.82C2.24901 26.7632 23.1069 3.32193 24.6712 1.72363C29.3643 -3.07117 42.4004 4.38741 42.4004 4.38741C42.4004 21.8387 47.9732 36.5317 42.4004 35.82C38.2288 35.2873 35.7954 28.7166 35.1002 26.2304C16.3281 42 -1.92254 46.4751 0.163219 35.82Z" fill="#E4AD59"/>
</svg>
