<svg width="207" height="249" viewBox="0 0 207 249" fill="none" xmlns="http://www.w3.org/2000/svg">
<path d="M147.789 244.239L148.472 244.17C150.072 242.17 150.139 238.336 149.972 236.67C92.4724 239.67 85.4724 239.17 50.4724 236.67C50.0724 241.07 51.3057 243.503 51.9724 244.17C94.2761 249.644 98.93 249.174 147.789 244.239Z" fill="#8E3215"/>
<path d="M184.973 221.67C183.822 219.752 183.306 214.836 182.973 213.17C191.472 214.67 202.306 211.17 204.972 209.67C206.473 211.17 206.473 217.17 206.473 217.17C206.973 221.17 186.472 224.17 184.973 221.67Z" fill="#8E3215"/>
<path d="M21.4723 220.67C22.9723 219.67 23.3056 214.836 23.4723 213.17C14.9723 213.67 9.47229 211.67 2.97229 208.17C1.37229 211.77 0.47229 214.17 0.97229 216.17C2.97229 220.17 16.4723 222.67 21.4723 220.67Z" fill="#8E3215"/>
<path d="M59.4725 126.17C48.6725 201.37 49.4725 236.67 50.4725 236.67C96.9723 244.17 143.472 237.67 149.972 236.67C154.23 236.015 156.306 162.336 156.972 126.17C160.172 152.97 174.306 195.003 181.472 212.67C181.472 217.67 207.972 212.67 206.972 209.17C196.472 83.6697 184.472 41.6697 151.472 45.6697C193.972 17.6696 113.972 -41.3303 80.9724 45.6697C66.4724 45.1697 60.4725 49.1698 48.4725 63.6697C35.8412 78.9324 -1.02754 206.67 2.47246 209.17C12.9725 215.17 19.4725 213.67 23.4725 214.17C26.6725 214.57 48.8058 155.67 59.4725 126.17Z" fill="#DF5023"/>
<path d="M149.508 20.1193C152.56 28.5967 147.88 46.467 104.747 50.1293C71.6852 50.1293 125.093 -13.9599 149.508 20.1193Z" fill="#8E3215"/>
<circle cx="1.5" cy="1.5" r="1.5" transform="matrix(-1 0 0 1 119.472 53.6697)" fill="#222222"/>
<path d="M117.972 55.1697C116.806 58.1697 114.172 66.2697 116.972 74.6697C119.772 83.0697 118.139 90.503 116.472 94.1697C115.336 96.6697 116.172 100.97 118.972 104.17" stroke="#222222" stroke-linecap="round"/>
<path d="M97.9723 55.1697C98.639 59.8363 99.3723 71.1697 96.9723 79.1697C94.5723 87.1697 97.3056 97.8363 98.9723 102.17" stroke="#222222" stroke-linecap="round"/>
<circle cx="1.5" cy="1.5" r="1.5" transform="matrix(-1 0 0 1 99.4723 53.6697)" fill="#222222"/>
</svg>
