<svg width="206" height="247" viewBox="0 0 206 247" fill="none" xmlns="http://www.w3.org/2000/svg">
<path d="M48.3203 244.512C89.0118 248.174 133.773 246.038 151.066 244.512C160.019 193.648 154.288 153.125 156.662 125.998C168.36 178.897 180.486 205.177 184.637 221.623C198.065 223.251 204.474 219.249 206 217.045C192.267 48.684 173.955 45.6324 151.066 45.6324C195.827 14.6048 107.832 -39.3114 80.8736 45.6324C61.8165 44.416 52.1194 58.081 48.3603 63.3783L48.3203 63.4347C31.0264 97.5138 -1.52681 215.011 0.507767 217.045C7.01842 221.928 16.7844 222.132 20.8535 221.623C34.2478 178.388 61.4435 119.894 59.002 125.998C55.9501 133.628 45.7771 244.512 48.3203 244.512Z" fill="white"/>
<path d="M149.032 20.1998C152.084 28.6772 147.404 46.5476 104.271 50.2098C71.2096 50.2098 124.617 -13.8793 149.032 20.1998Z" fill="#CACACA"/>
<path d="M114.444 55.2963C110.253 65.4692 101.898 187.544 98.6765 246.547H96.1333C105.289 98.0224 105.628 107.517 111.393 55.2963C110.884 53.7704 110.375 51.7358 110.375 49.1926H112.919C112.919 51.7358 113.936 54.4486 114.444 55.2963Z" fill="#CACACA"/>
</svg>
