<svg width="72" height="87" viewBox="0 0 72 87" fill="none" xmlns="http://www.w3.org/2000/svg">
<path d="M21.5847 73.9999C25.5847 61.5999 26.5847 46.8332 26.5847 40.9999L6.58472 31.9999C3.78472 41.5999 0.0847168 72.6665 1.08472 73.9999C2.58472 75.9999 21.1847 75.5999 21.5847 73.9999Z" fill="#2953A3"/>
<path d="M37.5847 85.9999C34.3847 73.1999 36.2514 49.9999 37.5847 39.9999C43.918 37.1666 59.3847 31.8999 58.5847 33.4999C54.5847 50.9999 66.5847 89.4999 61.5847 85.9999C57.8525 83.3873 38.0847 87.9999 37.5847 85.9999Z" fill="#2953A3"/>
<path d="M51.0847 0C57.5847 1.49988 59.0847 2.49988 62.0847 3.99994C58.0847 9.49994 45.9847 15.3 45.5847 14.5C45.1847 13.7 45.0847 8.83332 45.0847 6.99999C47.4847 4.59999 50.0847 1.33333 51.0847 0Z" fill="#2953A3"/>
<path d="M62.0846 3.99988C19.0847 30.9999 14.5846 16.4999 12.0847 10.9999C12.0847 10.9999 -1.41525 18.4998 7.58475 34.9998C15.7288 49.9305 55.1599 35.9624 71.0847 27.9999C73.5847 20.9999 71.0848 7.49988 62.0846 3.99988Z" fill="#2D60C4"/>
</svg>
