<svg width="138" height="154" viewBox="0 0 138 154" fill="none" xmlns="http://www.w3.org/2000/svg">
<path d="M116 136.889H135C130.2 82.8889 134 75.8889 123.5 0.388916H97.5L116 136.889Z" fill="#E4AD59"/>
<path d="M34.5 136.389H52.5C61.7 68.3889 63.5 61.3889 65 0.888917C65 0.888917 39.6861 -1.11115 39.5 0.888917C37.9 18.0889 35.8333 98.3889 34.5 136.389Z" fill="#CF9D53"/>
<path d="M83.7349 153.08H138C138 147.08 138 133.58 138 133.58C136.4 132.78 135.333 133.247 135 133.58C126.6 137.98 116.5 134.08 114 133.58C109.5 131.58 114 140.08 83.9999 141.58C80 141.08 81.735 153.08 83.7349 153.08Z" fill="white"/>
<path d="M2.2349 153.08H56.5C56.5001 147.08 56.4999 133.58 56.4999 133.58C54.8999 132.78 53.8332 133.247 53.4999 133.58C45.0999 137.98 35 134.08 32.5 133.58C28 131.58 32.5 140.08 2.4999 141.58C-1.50002 141.08 0.234974 153.08 2.2349 153.08Z" fill="white"/>
</svg>
