<svg width="199" height="199" viewBox="0 0 199 199" fill="none" xmlns="http://www.w3.org/2000/svg">
<path d="M157.5 81.5C164.3 118.3 177.667 158.833 183.5 174.5L199 172.5C191.5 135 185.667 92.5 182.5 75L157.5 81.5Z" fill="#E4AD59"/>
<path d="M48.5 80.5C37 117 21 157.5 15.3133 173L0 170.99C10 133 22 93.5 26.5 75L48.5 80.5Z" fill="#E4AD59"/>
<path d="M129 0.000366211C131 15.5002 92.3243 28.6823 88.5 0.000366211H129Z" fill="#E4AD59"/>
<path d="M48.5 195.5C94.9 201.5 131.5 198 144 195.5C148.8 153.9 149.333 90.1667 149 63.5C150.333 69.1667 153.5 80.8 155.5 82C171.5 84.8 184.833 77.8333 189.5 74C170 5.5 165.5 2.2158e-05 129 0C108.6 24.4 93.5 10.1667 88.5 0C50 0 34 49.5 23 74C33.4 82.4 46.3333 82.8333 51.5 82C54.3 74.4 54.6667 69.5 56 63.5C48.5 142.5 47.1667 195.333 48.5 195.5Z" fill="#DF5023"/>
</svg>
