<svg width="208" height="264" viewBox="0 0 208 264" fill="none" xmlns="http://www.w3.org/2000/svg">
<path d="M49.1093 257.755C87.5093 267.755 133.776 261.922 152.109 257.755C160.509 233.755 159.609 208.755 158.109 199.255C160.562 191.896 161.404 179.907 161.575 172.902C162.386 178.462 168.105 184.892 170.109 187.755C174.109 213.256 181.609 228.422 184.609 234.755C193.609 239.756 207.609 233.756 207.609 231.255C209.609 207.655 203.443 186.422 200.109 178.755C203.709 155.555 198.609 135.755 195.609 128.756C195.609 108.755 187.943 93.0889 184.609 87.2556C180.209 72.4556 171.443 64.7557 167.109 62.7557C163.909 58.3557 155.776 57.9222 152.109 58.7555C223.109 31.7556 98.6094 -58.7444 82.1093 58.7555C76.1093 57.5555 74.6093 59.2555 73.1093 60.2555C57.9093 65.0555 51.1093 75.2555 49.6093 79.7555C36.0093 96.5555 31.276 119.422 30.6093 128.756C19.8093 149.556 17.1093 170.755 17.1093 178.755C4.10933 186.755 -1.89067 229.755 0.609329 231.255C9.00932 237.255 19.776 236.755 24.1093 235.755C42.9093 216.955 47.6093 195.922 47.6093 187.755C50.4093 186.555 53.1093 183.922 54.1093 182.755C50.5093 188.355 51.6093 196.089 52.6093 199.255C46.1093 207.755 46.6093 256.255 49.1093 257.755Z" fill="white"/>
<path d="M152.609 27.2557C160.132 37.7556 148.517 60.053 105.384 63.7152C72.3224 63.7152 128.195 -6.8235 152.609 27.2557Z" fill="#CACACA"/>
<path d="M115.557 68.8016C111.365 78.9745 103.331 204.253 100.109 263.256H97.1094C106.265 114.732 106.741 121.022 112.505 68.8016C111.997 67.2757 111.488 65.2411 111.488 62.6979H114.031C114.031 65.2411 115.048 67.9539 115.557 68.8016Z" fill="#CACACA"/>
</svg>
